<svg version="1" xmlns="http://www.w3.org/2000/svg" width="360" height="360" viewBox="0 0 270.000000 270.000000"><path d="M98.3 9.7c.3.5 0 6-.4 12.3-1.2 15-1.9 27-2.4 40-.3 9.4-.1 11.4 2.5 19.2 1.6 4.7 3.1 9.9 3.4 11.5.2 1.5.9 4.4 1.5 6.3.6 1.9 1 3.7.9 4-.1.3.4 1.5 1.1 2.8.7 1.3 1.9 4.9 2.7 8 1.5 5.7 8 22.8 9.4 24.7.4.5 1.1 2.5 1.5 4.3.7 3.4 1.4 3.9 3.3 2 .9-.9 1.2-.8 1.2.4 0 .9-.5 2-1 2.3-.6.4-.8 1.1-.5 1.6.4.5.1.9-.6.9s-.9.3-.6.6c.3.4 0 1.6-.8 2.8-2.2 3-1.8 5.2 1.3 7.5 1.5 1.1 3.4 2.7 4.3 3.6 2 1.9 12.3 6.1 16.6 6.8l3.1.5.6-5.7c.3-3.1.6-6.1.6-6.6.1-1.1.1-1.4-2.5-10.4-1.4-4.6-2.5-6.6-4.2-7.4-1.3-.6-2.2-1.6-1.9-2.3.3-.7 1-3 1.5-5.1.6-2.1 1.6-4.5 2.1-5.3.9-1.3 1.2-1.3 2.1.4.6 1 2.4 3.2 3.9 5l2.8 3.1 2.6-2.4c1.4-1.3 2.8-3.2 3.2-4.3.7-2.2 3.2-2.4 4-.3.4.8 1 1.2 1.5.9.8-.5 1.3.9 1 2.8 0 .4.6.5 1.4.2.9-.4 1.6 0 1.6.7.1.8.3 4 .4 7.2.3 6.3 1.1 8 2.5 5.7.5-.9.5-1.9-.2-2.7-.7-.9-.7-1.3 0-1.3.6 0 .9-2.1.8-4.9-.1-2.7.1-4.8.5-4.5.4.2 1.5-.7 2.5-2.1 1-1.3 2.1-2.2 2.6-1.9.4.3.8-.2.8-1.1 0-1.2 1-1.6 3.8-1.5 2 0 5.1-.1 6.7-.3 1.7-.2 3.9-.5 5-.6l2-.2-2-.9c-1.1-.5-4.9-.9-8.5-1-5.5-.1-7-.5-9.7-2.8-3-2.6-5-8.3-3.6-10.5.3-.5.7-2.6.8-4.7.2-2.1 1-5.1 1.9-6.8.9-1.7 1.6-4 1.6-5.2 0-1.1.4-2 .8-2 .9 0 7.2 10.6 7.2 12.1 0 .5.4.9.9.9s1.7 1.6 2.6 3.7c3.5 7.4 7.7 12.9 16.9 22.2 13.1 13.4 20.6 20.4 20.7 19.4.1-.4.2-6.6.3-13.8.1-10.7.4-13 1.6-13 .8 0 1.9-1.6 2.5-3.5.5-1.9 1.4-4.1 1.8-4.7.5-.7 1.1-2.3 1.4-3.5.7-3 1-27.8.3-27.8-.3 0-.6-1.5-.7-3.3 0-1.7-.3-6.4-.5-10.4l-.4-7.2-6.2-5.8c-9.7-9-11.5-10.2-12.9-8.9-2 1.8-3.7 3.2-6.3 4.9-2.7 1.7-4.4 1.2-19.2-5.5-5.3-2.4-5.1-1.6-4.8-15.6.1-3.9-.1-7.2-.5-7.2-.3 0-1.9.7-3.4 1.5-1.6.8-3.1 1.1-3.5.8-.3-.4-.6-.1-.6.5 0 .7-.9 1.2-2 1.2s-2 .4-2 1c0 .5-.8 1-1.8 1s-2.2.3-2.6.7c-.4.5-1.1.8-1.4.9-.4 0-2.5.9-4.7 1.8-2.2 1-6 2.6-8.4 3.7-2.4 1-4.7 1.9-5.1 1.9-.4 0-1.3-2.1-2-4.8-1.7-5.9-1.3-4.9-3.8-10.5-1.2-2.7-2.2-5.5-2.2-6.2 0-3.6-2.2-2-4.6 3.1-2.7 5.9-4.5 8.4-6.1 8.4-.5 0-6.1-4.9-12.4-11-6.3-6-12-10.9-12.7-11-.7 0-1.1.3-.9.7zM62.5 58c-.4 1.6-.6 3.2-.6 3.5 0 .2-.6 2.3-1.4 4.6-.9 2.3-1.7 5.1-2 6.3-.2 1.2-.8 3.7-1.3 5.6-.7 3.2-.7 21.9.1 28.2.2 1.6.4 4.3.6 6l.2 3.3 1.6-3c1-1.7 1.6-3.6 1.5-4.3-.2-.6.1-1.2.6-1.2s.9 1.8.8 4.1c-.2 4.6.6 5.6 2.8 3.3.9-.8 1.6-1.3 1.6-.9s.7 0 1.5-.9c.8-.8 1.5-1.8 1.5-2.2 0-.3.8-1.4 1.8-2.3 1.6-1.4 5-7.4 10.2-18.1 1.6-3.3 1.7-6.3.5-15-.1-1.4-.3-3.1-.4-3.8-.1-1.4-3.1-1.7-3.1-.2 0 .5-.7 1-1.5 1-.9 0-2.6 1.1-3.8 2.4-3.2 3.4-5.3 1.5-6.2-5.4-.4-3-1.1-6.3-1.6-7.2-.5-.9-.9-2.8-.9-4.2 0-3.6-1.7-3.3-2.5.4zM58.1 134c-.7 1.6-1.1 3.1-.9 3.2.1.2-.5 1.4-1.4 2.7-.9 1.3-1.4 3-1.1 3.9.4 1 .2 1.3-.5.8-.7-.4-1.2-.3-1.2.1 0 .5-.6 1.7-1.3 2.7-1.2 1.7-1.5 1.7-5.3-.4-2.1-1.2-4.2-2.7-4.5-3.3-.4-.5-1.5-.7-2.4-.3-1 .3-1.5.9-1.2 1.2.3.3-.2 2.2-1 4.2-2.3 5.6-3.1 7.6-3.1 8.6 0 .5-.4 1.2-1 1.5-.5.3-2.4 4.4-4.1 9.1-1.8 4.6-3.9 9.3-4.6 10.3-.9 1.3-1.1 2.7-.5 4.2.5 1.3.6 2.5.3 2.8-.3.3-.6 7.1-.8 15.1l-.3 14.5 2.7 1.7c1.4 1 3.2 2.4 4 3.2.8.7 2.2 1.1 3.3.9 1.2-.4 3.2.8 5.8 3.4 2.2 2.2 4 4.2 4 4.6 0 .7 4.1 4.3 4.8 4.3.3 0 .3-.3-.1-.6-.3-.4 0-1.8.7-3.3.7-1.4 1.2-3.7 1.1-5.1-.1-1.4.3-4.4 1-6.8.7-2.3 1.3-4.4 1.3-4.5.1-.7 2.7-7 4.9-11.9l2.7-5.7 5.3.3c5.1.2 5.3.1 6.9-3.2.9-1.9 1.7-4 1.9-4.6.3-1.7 1.5-4.9 2.5-6.7.5-.9.6-2 .3-2.3-.4-.3-.7-2.1-.9-4-.1-1.9-.7-4.9-1.3-6.8-.5-1.8-1.2-4.4-1.5-5.8-.8-4.4-4.3-13.6-7-18.4-1.4-2.6-2.6-5.2-2.6-5.9 0-.7-.8-2.4-1.8-3.9l-1.8-2.7-1.3 2.9z"/><path d="M204.3 158.7c-.1 17.3.1 16.3-2.8 12.2-2.5-3.8-5.4-5.7-5.6-3.6-.3 3.8-.7 7.8-1.4 12.7-1.2 8-1.4 18.3-.4 20.1.5.9.5 1.9.2 2.3-.4.4-.6 2.6-.4 4.9.3 4.6 2.3 7.3 10.4 13.8l4.9 3.9 3-2.5c1.7-1.4 4.3-3.2 5.9-4.1 2.6-1.3 3.2-1.3 5.5.2 2.7 1.8 5.2 3.2 13.3 7.6 2.8 1.6 5.2 2.8 5.5 2.8.6 0 1.9-6.5 3.1-16.5 1.2-10.3 1.2-11.9-.6-14-.9-1.1-3-4.6-4.7-7.7-1.7-3.2-4.7-8.2-6.6-11.2-1.9-3-3.3-5.6-3-5.9.5-.5-24.5-26.7-25.5-26.7-.4 0-.8 5.3-.8 11.7zM166.6 150.8c-.2.4-.1 1.4.4 2.2.7 1.1.9.9.7-.8-.1-2.4-.3-2.6-1.1-1.4zM109.5 172.2c-2.7 4-6.5 9.3-8.6 11.8-2 2.5-5.4 7.9-7.4 12-2.1 4.1-4.2 7.8-4.8 8.2-.8.5-.6 1.3.4 2.5.8 1 2.1 3.1 2.9 4.8.8 1.6 1.8 3.2 2.2 3.5.4.3-.6 3-2.3 6-1.6 3-3.8 7.5-4.9 10-1.1 2.5-2.5 5.4-3.1 6.4-1.1 1.9-1.8 4.7-2.3 9.6-.1 1.4-.7 4.7-1.4 7.5-.6 2.7-1.3 6.8-1.5 9-.2 2.2-.6 4.6-1.1 5.3-.6.9 4.5 1.2 22.8 1.2 18.2 0 23.6-.3 23.7-1.3.2-2.4 0-17.2-.2-17.2-.1 0-.3-3.7-.4-8.3-.1-4.5-.5-8.6-.9-8.9-.3-.3-.6-1.2-.6-2 0-.7-.9-2.2-2.1-3.4-1.1-1.1-1.8-2.7-1.5-3.5.3-.8.2-1.3-.2-1-.5.3-1.3-.8-1.9-2.4-1-2.6-.8-3.1 2.1-5.9l3.2-3.1-.1-14.5c-.1-10.1-.6-14.9-1.5-16-.7-.8-1-1.5-.6-1.5.3 0 .1-1.2-.5-2.6-.5-1.5-1.2-4.3-1.5-6.3-.7-5-1.4-7.1-2.3-7.1-.5 0-3 3.3-5.6 7.2zM150 178.2c-1 10.6-.9 25.1.4 36.8.2 1.4-.1 4.1-.5 6.1-.5 1.9-1.1 5.3-1.4 7.5-.2 2.1-.7 4.9-.9 6-.5 2.2-.9 12.5-.6 13.4.1.3.3 2.1.5 4s.7 5.1 1.1 7c.4 1.9.8 4.2.8 5.2.1.9.4 1.9.8 2.3.4.4.4 1.3.1 2.1-.4 1.2 3 1.4 21 1.4 21.1 0 21.6 0 21.2-2-.2-1.1-.7-2.5-1-3-.3-.5-.8-4.2-1-8.1-.3-3.9-.7-7.5-1-8-.4-.5-.1-.9.5-.9s.8-.5.5-1c-.4-.6-1-.8-1.4-.6-.4.3-1.5-.9-2.5-2.7-.9-1.8-2.2-4.1-2.9-5.2-.7-1.1-2.6-4.3-4.2-7-4.1-7-5.3-7.8-8.6-5.4-5.1 3.6-6.9 1.2-2.4-3.1 4.8-4.5 5.3-11.7 1.6-20.5-2.3-5.2-3.6-9.1-3.3-9.8.3-1-4.5-10.7-6.4-12.8-.8-.8-1.4-1.9-1.4-2.3 0-1.2-6.4-11.6-7.1-11.6-.3 0-1.2 5.5-1.9 12.2z"/></svg>